<svg xmlns="http://www.w3.org/2000/svg" viewBox="0 0 64 64" fill="none">
  <defs>
    <linearGradient id="p0005-bg" x1="0" y1="0" x2="64" y2="64" gradientUnits="userSpaceOnUse">
      <stop offset="0" stop-color="#0C4A6E"/>
      <stop offset="1" stop-color="#082F49"/>
    </linearGradient>
    <linearGradient id="p0005-fg" x1="12" y1="12" x2="52" y2="52" gradientUnits="userSpaceOnUse">
      <stop offset="0" stop-color="#7DD3FC"/>
      <stop offset="1" stop-color="#0EA5E9"/>
    </linearGradient>
  </defs>
  <rect width="64" height="64" rx="14" fill="url(#p0005-bg)"/>
  <rect x="0.5" y="0.5" width="63" height="63" rx="13.5" stroke="white" stroke-opacity="0.06"/>
  <path d="M14 18 Q14 14 18 14 H46 Q50 14 50 18 V36 Q50 40 46 40 H28 L20 48 V40 H18 Q14 40 14 36 Z" fill="url(#p0005-fg)"/>
  <path d="M22 26 L26 30 L34 22" stroke="white" stroke-width="2.4" stroke-linecap="round" stroke-linejoin="round"/>
  <path d="M40 22 L42 28 L40 34 M44 22 L42 28 L44 34" stroke="white" stroke-width="2" stroke-linecap="round" stroke-linejoin="round" opacity="0.85"/>
  <circle cx="50" cy="14" r="3" fill="#FBBF24"/>
  <path d="M48.5 14 L49.5 15 L51.5 13" stroke="#0C4A6E" stroke-width="1.4" stroke-linecap="round" stroke-linejoin="round"/>
</svg>
