<svg xmlns="http://www.w3.org/2000/svg" viewBox="0 0 64 64" fill="none">
  <defs>
    <linearGradient id="p0004-bg" x1="0" y1="0" x2="64" y2="64" gradientUnits="userSpaceOnUse">
      <stop offset="0" stop-color="#1E1B4B"/>
      <stop offset="1" stop-color="#0F172A"/>
    </linearGradient>
    <linearGradient id="p0004-fg" x1="14" y1="14" x2="50" y2="50" gradientUnits="userSpaceOnUse">
      <stop offset="0" stop-color="#A78BFA"/>
      <stop offset="1" stop-color="#6366F1"/>
    </linearGradient>
  </defs>
  <rect width="64" height="64" rx="14" fill="url(#p0004-bg)"/>
  <rect x="0.5" y="0.5" width="63" height="63" rx="13.5" stroke="white" stroke-opacity="0.06"/>
  <path d="M32 32 L16 18 M32 32 L48 18 M32 32 L16 46 M32 32 L48 46 M32 32 L32 14 M32 32 L32 50" stroke="url(#p0004-fg)" stroke-width="1.4" opacity="0.55"/>
  <circle cx="16" cy="18" r="3.5" fill="#A78BFA"/>
  <circle cx="48" cy="18" r="3.5" fill="#A78BFA"/>
  <circle cx="16" cy="46" r="3.5" fill="#A78BFA"/>
  <circle cx="48" cy="46" r="3.5" fill="#A78BFA"/>
  <circle cx="32" cy="14" r="3" fill="#C4B5FD"/>
  <circle cx="32" cy="50" r="3" fill="#C4B5FD"/>
  <circle cx="32" cy="32" r="7" fill="url(#p0004-fg)"/>
  <circle cx="32" cy="32" r="2.5" fill="white"/>
</svg>
