<svg xmlns="http://www.w3.org/2000/svg" viewBox="0 0 64 64" fill="none">
  <defs>
    <linearGradient id="p0008-bg" x1="0" y1="0" x2="64" y2="64" gradientUnits="userSpaceOnUse">
      <stop offset="0" stop-color="#3B0764"/>
      <stop offset="1" stop-color="#1E1B4B"/>
    </linearGradient>
    <linearGradient id="p0008-fg" x1="14" y1="14" x2="50" y2="50" gradientUnits="userSpaceOnUse">
      <stop offset="0" stop-color="#F0ABFC"/>
      <stop offset="1" stop-color="#A855F7"/>
    </linearGradient>
  </defs>
  <rect width="64" height="64" rx="14" fill="url(#p0008-bg)"/>
  <rect x="0.5" y="0.5" width="63" height="63" rx="13.5" stroke="white" stroke-opacity="0.06"/>
  <path d="M18 22 H46 L43 50 H21 Z" fill="url(#p0008-fg)"/>
  <path d="M25 22 V18 Q25 12 32 12 Q39 12 39 18 V22" stroke="#F0ABFC" stroke-width="2.4" fill="none" stroke-linecap="round"/>
  <rect x="25" y="32" width="3" height="12" rx="1" fill="#3B0764"/>
  <rect x="30.5" y="28" width="3" height="16" rx="1" fill="#3B0764"/>
  <rect x="36" y="36" width="3" height="8" rx="1" fill="#3B0764"/>
  <path d="M24 30 L31.5 26 L37 32 L42 26" stroke="#FBBF24" stroke-width="1.6" stroke-linecap="round" stroke-linejoin="round" fill="none"/>
  <circle cx="42" cy="26" r="2" fill="#FBBF24"/>
</svg>
