<svg xmlns="http://www.w3.org/2000/svg" viewBox="0 0 64 64" fill="none">
  <defs>
    <linearGradient id="p0010-bg" x1="0" y1="0" x2="64" y2="64" gradientUnits="userSpaceOnUse">
      <stop offset="0" stop-color="#0F172A"/>
      <stop offset="1" stop-color="#020617"/>
    </linearGradient>
    <linearGradient id="p0010-arrow" x1="14" y1="20" x2="50" y2="44" gradientUnits="userSpaceOnUse">
      <stop offset="0" stop-color="#67E8F9"/>
      <stop offset="1" stop-color="#0EA5E9"/>
    </linearGradient>
  </defs>
  <rect width="64" height="64" rx="14" fill="url(#p0010-bg)"/>
  <rect x="0.5" y="0.5" width="63" height="63" rx="13.5" stroke="white" stroke-opacity="0.06"/>

  <!-- CENTER: Two-way sync arrows (bridge motif) -->
  <path d="M16 28 Q32 18 48 28" stroke="url(#p0010-arrow)" stroke-width="3.2" stroke-linecap="round" fill="none"/>
  <path d="M44 24 L48 28 L44 32" stroke="url(#p0010-arrow)" stroke-width="3.2" stroke-linecap="round" stroke-linejoin="round" fill="none"/>
  <path d="M48 36 Q32 46 16 36" stroke="url(#p0010-arrow)" stroke-width="3.2" stroke-linecap="round" fill="none"/>
  <path d="M20 32 L16 36 L20 40" stroke="url(#p0010-arrow)" stroke-width="3.2" stroke-linecap="round" stroke-linejoin="round" fill="none"/>

  <!-- TOP-LEFT BADGE: Cursor IDE (black square + white pointer) -->
  <rect x="4" y="4" width="16" height="16" rx="4" fill="#FFFFFF" stroke="#0F172A" stroke-width="1.2"/>
  <path d="M9 8 L9 17 L11.5 14.8 L13.2 18 L14.6 17.4 L13 14.2 L16 14 Z" fill="#0F172A"/>

  <!-- TOP-RIGHT BADGE: Telegram (cyan circle + paper plane) -->
  <circle cx="52" cy="12" r="8" fill="#229ED9" stroke="#FFFFFF" stroke-width="1.2"/>
  <path d="M48 12.5 L56 9.5 L54.5 16 L52.5 14.5 L51 16 L51 14 Z" fill="#FFFFFF"/>
</svg>
