<svg xmlns="http://www.w3.org/2000/svg" viewBox="0 0 64 64" fill="none">
  <defs>
    <linearGradient id="p0019-bg" x1="0" y1="0" x2="64" y2="64" gradientUnits="userSpaceOnUse">
      <stop offset="0" stop-color="#1E40AF"/>
      <stop offset="1" stop-color="#0C1E5C"/>
    </linearGradient>
    <linearGradient id="p0019-fg" x1="12" y1="14" x2="52" y2="50" gradientUnits="userSpaceOnUse">
      <stop offset="0" stop-color="#93C5FD"/>
      <stop offset="1" stop-color="#3B82F6"/>
    </linearGradient>
  </defs>
  <rect width="64" height="64" rx="14" fill="url(#p0019-bg)"/>
  <rect x="0.5" y="0.5" width="63" height="63" rx="13.5" stroke="white" stroke-opacity="0.06"/>
  <rect x="10" y="14" width="14" height="36" rx="3" fill="url(#p0019-fg)" opacity="0.55"/>
  <rect x="25" y="14" width="14" height="36" rx="3" fill="url(#p0019-fg)" opacity="0.8"/>
  <rect x="40" y="14" width="14" height="36" rx="3" fill="url(#p0019-fg)"/>
  <rect x="13" y="18" width="8" height="6" rx="1.5" fill="white" opacity="0.95"/>
  <rect x="13" y="26" width="8" height="6" rx="1.5" fill="white" opacity="0.7"/>
  <rect x="28" y="18" width="8" height="6" rx="1.5" fill="white" opacity="0.95"/>
  <rect x="28" y="26" width="8" height="6" rx="1.5" fill="white" opacity="0.85"/>
  <rect x="28" y="34" width="8" height="6" rx="1.5" fill="white" opacity="0.7"/>
  <rect x="43" y="18" width="8" height="6" rx="1.5" fill="white" opacity="0.95"/>
  <path d="M44 32 L46 34 L50 30" stroke="#1E40AF" stroke-width="1.8" stroke-linecap="round" stroke-linejoin="round" fill="none"/>
  <rect x="43" y="28" width="8" height="8" rx="1.5" fill="#FBBF24"/>
  <path d="M44.5 32 L46.5 34 L49.5 30.5" stroke="#1E40AF" stroke-width="1.8" stroke-linecap="round" stroke-linejoin="round" fill="none"/>
</svg>
