<svg xmlns="http://www.w3.org/2000/svg" viewBox="0 0 64 64" fill="none">
  <defs>
    <linearGradient id="p0015-bg" x1="0" y1="0" x2="64" y2="64" gradientUnits="userSpaceOnUse">
      <stop offset="0" stop-color="#134E4A"/>
      <stop offset="1" stop-color="#042F2E"/>
    </linearGradient>
    <linearGradient id="p0015-fg" x1="12" y1="16" x2="52" y2="48" gradientUnits="userSpaceOnUse">
      <stop offset="0" stop-color="#5EEAD4"/>
      <stop offset="1" stop-color="#14B8A6"/>
    </linearGradient>
  </defs>
  <rect width="64" height="64" rx="14" fill="url(#p0015-bg)"/>
  <rect x="0.5" y="0.5" width="63" height="63" rx="13.5" stroke="white" stroke-opacity="0.06"/>
  <rect x="10" y="16" width="44" height="32" rx="4" fill="url(#p0015-fg)"/>
  <circle cx="22" cy="28" r="5" fill="white"/>
  <path d="M14 40 Q22 34 30 40" stroke="white" stroke-width="2.4" stroke-linecap="round" fill="none"/>
  <rect x="34" y="22" width="14" height="2" rx="1" fill="white" opacity="0.95"/>
  <rect x="34" y="26" width="10" height="2" rx="1" fill="white" opacity="0.7"/>
  <g fill="#134E4A">
    <rect x="34" y="34" width="1.5" height="10"/>
    <rect x="36.5" y="34" width="1" height="10"/>
    <rect x="38.5" y="34" width="2" height="10"/>
    <rect x="41.5" y="34" width="1" height="10"/>
    <rect x="43.5" y="34" width="1.5" height="10"/>
    <rect x="46" y="34" width="1" height="10"/>
    <rect x="48" y="34" width="2" height="10"/>
  </g>
</svg>
