<svg xmlns="http://www.w3.org/2000/svg" viewBox="0 0 64 64" fill="none">
  <defs>
    <linearGradient id="p0012-bg" x1="0" y1="0" x2="64" y2="64" gradientUnits="userSpaceOnUse">
      <stop offset="0" stop-color="#0F172A"/>
      <stop offset="1" stop-color="#020617"/>
    </linearGradient>
    <linearGradient id="p0012-pent" x1="18" y1="14" x2="46" y2="46" gradientUnits="userSpaceOnUse">
      <stop offset="0" stop-color="#FCD34D"/>
      <stop offset="1" stop-color="#F59E0B"/>
    </linearGradient>
  </defs>
  <rect width="64" height="64" rx="14" fill="url(#p0012-bg)"/>
  <rect x="0.5" y="0.5" width="63" height="63" rx="13.5" stroke="white" stroke-opacity="0.06"/>

  <!-- Sync arrows orbit (top + bottom semicircles) -->
  <path d="M14 32 A18 18 0 0 1 50 32" stroke="#60A5FA" stroke-width="2.4" stroke-linecap="round" fill="none"/>
  <path d="M46 28 L50 32 L54 28" stroke="#60A5FA" stroke-width="2.4" stroke-linecap="round" stroke-linejoin="round" fill="none"/>
  <path d="M50 32 A18 18 0 0 1 14 32" stroke="#60A5FA" stroke-width="2.4" stroke-linecap="round" fill="none"/>
  <path d="M18 36 L14 32 L10 36" stroke="#60A5FA" stroke-width="2.4" stroke-linecap="round" stroke-linejoin="round" fill="none"/>

  <!-- CENTER: Apps Script pentagon shield with </> -->
  <path d="M32 16 L46 23 L43.5 41 L20.5 41 L18 23 Z" fill="url(#p0012-pent)" stroke="#78350F" stroke-width="1" stroke-linejoin="round"/>
  <!-- </> glyph -->
  <path d="M28 27 L24 32 L28 37" stroke="#1E3A8A" stroke-width="2.4" stroke-linecap="round" stroke-linejoin="round" fill="none"/>
  <path d="M36 27 L40 32 L36 37" stroke="#1E3A8A" stroke-width="2.4" stroke-linecap="round" stroke-linejoin="round" fill="none"/>
  <path d="M33.5 25.5 L30.5 38.5" stroke="#1E3A8A" stroke-width="2.4" stroke-linecap="round"/>
</svg>
